<svg xmlns="http://www.w3.org/2000/svg" viewBox="0 0 584.75 584.75"><defs><style>.cls-1{fill:#c2ceb3;}.cls-2{fill:#fff;}</style></defs><title>Asset 1</title><g id="Layer_2" data-name="Layer 2"><g id="Слой_1" data-name="Слой 1"><circle class="cls-1" cx="292.37" cy="292.38" r="292.38"/><path class="cls-2" d="M419,77.39S420.13,54,389.45,57.7C358.76,61.56,302.6,82.6,270,133.35s-41.88,126.8-43.81,147.83L161.34,302.8v79.51l58.47-18.14s-4.44,101.12-1.93,163.65H335.6s.2-143,.2-198.2l56.54-16.21v-89l-56,19.88V156.13s.38-13.13,7.91-18.34c7.33-5.21,19.3-10.8,37.63-5.21,16.21,5,29.72,9.07,35.7-5.59a27.11,27.11,0,0,0,1.93-10.43Z"/></g></g></svg>